<svg width="40" height="40" viewBox="0 0 40 40" fill="none" xmlns="http://www.w3.org/2000/svg">
<rect width="40" height="40" rx="20" fill="#232531"/>
<path d="M16.5205 21.8461C15.4805 21.8461 14.6325 20.9011 14.6325 19.7451C14.6325 18.5881 15.4595 17.6431 16.5215 17.6431C17.5715 17.6431 18.4314 18.5881 18.4104 19.7451C18.4104 20.9011 17.5715 21.8461 16.5205 21.8461ZM23.4945 21.8451C22.4545 21.8451 21.6045 20.9001 21.6045 19.7441C21.6045 18.5871 22.4335 17.6421 23.4945 17.6421C24.5445 17.6421 25.4045 18.5871 25.3845 19.7441C25.3845 20.9001 24.5555 21.8451 23.4945 21.8451ZM18.1255 12.3211L17.8175 11.7581L17.1835 11.8641C15.7466 12.1036 14.3483 12.5341 13.0255 13.1441L12.7975 13.2491L12.6555 13.4591C10.0425 17.3121 9.32545 21.1071 9.68045 24.8341L9.71945 25.2411L10.0495 25.4811C11.5867 26.6089 13.3035 27.4687 15.1275 28.0241L15.9175 28.2661L17.0305 25.5501C18.9405 26.0221 21.0604 26.0221 22.9694 25.5501L24.0765 28.2671L24.8664 28.0251C26.6919 27.4709 28.4097 26.6103 29.9464 25.4801L30.2735 25.2421L30.3134 24.8401C30.7495 20.5201 29.6164 16.7571 27.3554 13.4561L27.2134 13.2481L26.9855 13.1441C25.663 12.5369 24.2663 12.1065 22.8315 11.8641L22.2135 11.7611L21.8995 12.3031C21.8115 12.4531 21.7225 12.6231 21.6364 12.7961C20.5517 12.684 19.4582 12.684 18.3735 12.7961C18.2885 12.6261 18.2035 12.4621 18.1255 12.3211ZM14.7155 24.6101C14.9125 24.7241 15.1205 24.8361 15.3255 24.9381L14.8765 26.0341C13.662 25.5914 12.5098 24.9938 11.4485 24.2561C11.2235 21.1181 11.8615 17.9511 14.0125 14.6861C14.9202 14.2863 15.8665 13.9803 16.8365 13.7731C16.8965 13.8981 16.9525 14.0211 16.9985 14.1291L17.2715 14.7721L17.9635 14.6711C19.3195 14.4724 20.6974 14.4724 22.0535 14.6711L22.7435 14.7711L23.0155 14.1291C23.0625 14.0171 23.1175 13.8951 23.1755 13.7731C24.1525 13.9831 25.0985 14.2931 26.0035 14.6881C27.8785 17.5081 28.8244 20.6541 28.5494 24.2551C27.4882 24.9944 26.3351 25.5924 25.1194 26.0341L24.6744 24.9391C24.8805 24.8371 25.0885 24.7251 25.2875 24.6101C25.7775 24.3281 26.3044 23.9761 26.6404 23.6401L25.3605 22.3601C25.1975 22.5241 24.8375 22.7801 24.3834 23.0421C23.9394 23.2981 23.4984 23.5051 23.2164 23.5981C21.2134 24.2611 18.7885 24.2611 16.7845 23.5981C16.5035 23.5051 16.0625 23.2981 15.6185 23.0421C15.1645 22.7811 14.8045 22.5241 14.6405 22.3601L13.3605 23.6401C13.6975 23.9761 14.2255 24.3281 14.7155 24.6101Z" fill="#C1C2C5"/>
</svg>
