<svg width="49" height="48" viewBox="0 0 49 48" fill="none" xmlns="http://www.w3.org/2000/svg">
<rect x="0.666016" width="48" height="48" rx="24" fill="#41424D" fill-opacity="0.3"/>
<path d="M24.9508 13.3368C24.768 13.2635 24.564 13.2635 24.3812 13.3368L15.2427 16.9919L24.666 20.7603L34.0893 16.9919L24.9508 13.3368ZM35.3848 18.1234L25.4316 22.1047V34.2353L35.3848 30.254V18.1234ZM23.9004 34.2368V22.1032L13.9473 18.1234V30.2555L23.9004 34.2368ZM23.8131 11.9142C24.3606 11.6953 24.9714 11.6953 25.5189 11.9142L36.4352 16.2814C36.5771 16.3382 36.6988 16.4363 36.7845 16.5629C36.8702 16.6896 36.916 16.839 36.916 16.9919V30.2555C36.9158 30.5615 36.824 30.8604 36.6523 31.1137C36.4806 31.367 36.237 31.563 35.9529 31.6765L24.9508 36.0774C24.768 36.1506 24.564 36.1506 24.3812 36.0774L13.3807 31.6765C13.0963 31.5633 12.8523 31.3673 12.6804 31.114C12.5084 30.8607 12.4163 30.5617 12.416 30.2555V16.9919C12.4161 16.839 12.4619 16.6896 12.5476 16.5629C12.6333 16.4363 12.7549 16.3382 12.8968 16.2814L23.8131 11.9142Z" fill="#2574F3"/>
</svg>
