<svg width="53" height="52" viewBox="0 0 53 52" fill="none" xmlns="http://www.w3.org/2000/svg">
<rect x="0.666016" width="52" height="52" rx="26" fill="#41424D" fill-opacity="0.3"/>
<path d="M26.666 13C24.0949 13 21.5814 13.7624 19.4436 15.1909C17.3058 16.6194 15.6395 18.6497 14.6556 21.0251C13.6716 23.4006 13.4142 26.0144 13.9158 28.5362C14.4174 31.0579 15.6556 33.3743 17.4736 35.1924C19.2917 37.0105 21.6081 38.2486 24.1298 38.7502C26.6516 39.2518 29.2655 38.9944 31.6409 38.0104C34.0163 37.0265 36.0467 35.3603 37.4751 33.2224C38.9036 31.0846 39.666 28.5712 39.666 26C39.6624 22.5533 38.2916 19.2488 35.8544 16.8116C33.4172 14.3744 30.1127 13.0036 26.666 13ZM26.666 37C24.4904 37 22.3637 36.3549 20.5547 35.1462C18.7458 33.9375 17.3359 32.2195 16.5033 30.2095C15.6708 28.1995 15.4529 25.9878 15.8774 23.854C16.3018 21.7202 17.3495 19.7602 18.8878 18.2218C20.4262 16.6834 22.3862 15.6358 24.52 15.2114C26.6538 14.7869 28.8656 15.0048 30.8755 15.8373C32.8855 16.6699 34.6035 18.0798 35.8122 19.8887C37.0209 21.6977 37.666 23.8244 37.666 26C37.6627 28.9164 36.5027 31.7123 34.4405 33.7745C32.3784 35.8367 29.5824 36.9967 26.666 37ZM34.666 26C34.666 26.2652 34.5607 26.5196 34.3731 26.7071C34.1856 26.8946 33.9312 27 33.666 27H26.666C26.4008 27 26.1465 26.8946 25.9589 26.7071C25.7714 26.5196 25.666 26.2652 25.666 26V19C25.666 18.7348 25.7714 18.4804 25.9589 18.2929C26.1465 18.1054 26.4008 18 26.666 18C26.9312 18 27.1856 18.1054 27.3731 18.2929C27.5607 18.4804 27.666 18.7348 27.666 19V25H33.666C33.9312 25 34.1856 25.1054 34.3731 25.2929C34.5607 25.4804 34.666 25.7348 34.666 26Z" fill="#2574F3"/>
</svg>
