<svg width="14" height="16" viewBox="0 0 14 16" fill="none" xmlns="http://www.w3.org/2000/svg">
<path d="M2.86048 9.4082C2.86048 7.75227 2.8693 6.09524 2.85496 4.43931C2.85054 3.95045 3.34384 3.20837 3.84045 2.98926C4.21898 2.82191 4.57433 2.812 4.95065 2.812C7.37521 2.8087 9.79978 2.8164 12.2243 2.80539C12.6746 2.80319 13.0222 2.98706 13.3588 3.2458C13.8433 3.61795 13.9934 4.13542 13.9945 4.70575C14 7.86237 13.9956 11.0201 14 14.1767C14.0011 14.6711 13.84 15.1324 13.5409 15.4858C13.3036 15.7666 12.956 16.0011 12.519 16C9.77329 15.9934 7.02759 15.9945 4.28078 16C3.85921 16.0011 3.17389 15.4891 3.0238 15.0873C2.86599 14.6656 2.85937 14.256 2.85827 13.8299C2.85937 12.3545 2.86048 10.8814 2.86048 9.4082ZM4.52577 9.37957C4.52577 10.899 4.53129 12.4184 4.52026 13.9367C4.51805 14.2086 4.5942 14.3033 4.87671 14.3022C7.2461 14.2934 9.61658 14.2978 11.986 14.2967C12.3259 14.2967 12.3369 14.2835 12.3369 13.9367C12.3369 10.9078 12.3369 7.87779 12.3369 4.84888C12.3369 4.48114 12.3248 4.46903 11.944 4.46903C9.60224 4.46793 7.25934 4.46793 4.91755 4.46903C4.5324 4.46903 4.52467 4.47784 4.52467 4.87641C4.52577 6.3782 4.52577 7.87889 4.52577 9.37957Z" fill="#97989E"/>
<path d="M0 6.2758C0 4.67382 0 3.07184 0 1.46986C0 0.888522 0.369699 0.402973 0.895002 0.14093C1.15434 0.0110102 1.39713 0.00110102 1.65978 0.00110102C4.39666 0 7.13463 0 9.87151 0C10.3483 0 10.3615 0.0154143 10.3615 0.496559C10.3615 0.689237 10.3626 0.880815 10.3615 1.07349C10.3571 1.49078 10.1938 1.65593 9.7766 1.65703C7.25934 1.65813 4.74208 1.65813 2.22481 1.65813C1.70393 1.65813 1.70392 1.65813 1.70392 2.18332C1.70392 5.17699 1.70392 8.16955 1.70392 11.1632C1.70392 11.6279 1.67523 11.6565 1.20069 11.6565C0.91597 11.6565 0.631247 11.651 0.346524 11.6576C0.114772 11.6631 0.00551789 11.5519 0.00331074 11.3284C0 11.0718 0 10.8153 0 10.5588C0 9.13185 0 7.70382 0 6.2758Z" fill="#97989E"/>
</svg>
