<svg width="15" height="10" viewBox="0 0 15 10" fill="none" xmlns="http://www.w3.org/2000/svg">
<path d="M14.1617 1.67865H0.838256C0.375451 1.67865 0 1.30314 0 0.839325C0 0.37593 0.375451 0 0.838256 0H14.1617C14.6245 0 15 0.37593 15 0.839325C15 1.30314 14.6245 1.67865 14.1617 1.67865Z" fill="#FAFAFA"/>
<path d="M11.6701 5.83912H3.32951C2.8667 5.83912 2.49125 5.46319 2.49125 4.99979C2.49125 4.53639 2.8667 4.16046 3.32951 4.16046H11.6701C12.1329 4.16046 12.5083 4.53639 12.5083 4.99979C12.5087 5.46361 12.1333 5.83912 11.6701 5.83912Z" fill="#FAFAFA"/>
<path d="M8.49259 10H6.50741C6.0446 10 5.66915 9.62407 5.66915 9.16068C5.66915 8.69728 6.0446 8.32135 6.50741 8.32135H8.49259C8.9554 8.32135 9.33085 8.69728 9.33085 9.16068C9.33085 9.62407 8.9554 10 8.49259 10Z" fill="#FAFAFA"/>
</svg>
