<svg width="48" height="48" viewBox="0 0 48 48" fill="none" xmlns="http://www.w3.org/2000/svg">
<rect width="48" height="48" rx="24" fill="#41424D" fill-opacity="0.3"/>
<path d="M14.6667 20.5H29.8333L27.9667 21.9C27.8441 21.9919 27.7408 22.1071 27.6628 22.2389C27.5847 22.3708 27.5334 22.5167 27.5117 22.6683C27.4901 22.82 27.4985 22.9745 27.5365 23.1229C27.5745 23.2713 27.6414 23.4108 27.7333 23.5333C27.842 23.6782 27.9829 23.7958 28.1449 23.8768C28.3069 23.9578 28.4855 24 28.6667 24C28.9191 24 29.1647 23.9181 29.3667 23.7667L34.0333 20.2667C34.176 20.1578 34.2917 20.0175 34.3713 19.8566C34.4509 19.6957 34.4923 19.5187 34.4923 19.3392C34.4923 19.1597 34.4509 18.9826 34.3713 18.8218C34.2917 18.6609 34.176 18.5206 34.0333 18.4117L29.53 14.9117C29.2856 14.7214 28.9755 14.636 28.6681 14.6743C28.3607 14.7126 28.0811 14.8714 27.8908 15.1158C27.7005 15.3603 27.6151 15.6703 27.6534 15.9777C27.6917 16.2851 27.8506 16.5647 28.095 16.755L29.9267 18.1667H14.6667C14.3572 18.1667 14.0605 18.2896 13.8417 18.5084C13.6229 18.7272 13.5 19.0239 13.5 19.3333C13.5 19.6428 13.6229 19.9395 13.8417 20.1583C14.0605 20.3771 14.3572 20.5 14.6667 20.5ZM33.3333 28.6667H18.1667L20.0333 27.2667C20.2809 27.081 20.4445 26.8046 20.4883 26.4983C20.532 26.192 20.4523 25.8809 20.2667 25.6333C20.081 25.3858 19.8046 25.2222 19.4983 25.1784C19.192 25.1346 18.8809 25.2144 18.6333 25.4L13.9667 28.9C13.824 29.0089 13.7083 29.1492 13.6287 29.3101C13.5491 29.471 13.5077 29.648 13.5077 29.8275C13.5077 30.007 13.5491 30.1841 13.6287 30.3449C13.7083 30.5058 13.824 30.6461 13.9667 30.755L18.47 34.255C18.6736 34.4131 18.9239 34.4992 19.1817 34.5C19.3598 34.4996 19.5355 34.4583 19.6953 34.3795C19.8551 34.3006 19.9946 34.1862 20.1033 34.045C20.2928 33.8018 20.3783 33.4935 20.3411 33.1874C20.304 32.8814 20.1472 32.6025 19.905 32.4117L18.0733 31H33.3333C33.6428 31 33.9395 30.8771 34.1583 30.6583C34.3771 30.4395 34.5 30.1428 34.5 29.8333C34.5 29.5239 34.3771 29.2272 34.1583 29.0084C33.9395 28.7896 33.6428 28.6667 33.3333 28.6667Z" fill="#2574F3"/>
</svg>
