<svg width="40" height="40" viewBox="0 0 40 40" fill="none" xmlns="http://www.w3.org/2000/svg">
<rect width="40" height="40" rx="20" fill="#232531"/>
<path fill-rule="evenodd" clip-rule="evenodd" d="M17.6861 17.2719H21.0287V18.9369C21.5102 17.9793 22.745 17.1189 24.5999 17.1189C28.1558 17.1189 29 19.0251 29 22.5225V28.9998H25.4V23.319C25.4 21.3273 24.9185 20.2041 23.6927 20.2041C21.9926 20.2041 21.2861 21.4146 21.2861 23.3181V28.9998H17.6861V17.2719ZM11.513 28.8468H15.113V17.1189H11.513V28.8468ZM15.6287 13.2948C15.6288 13.5965 15.569 13.8953 15.4526 14.1737C15.3363 14.4521 15.1658 14.7046 14.951 14.9166C14.5158 15.3491 13.9266 15.5912 13.313 15.5898C12.7005 15.5893 12.1127 15.3478 11.6768 14.9175C11.4628 14.7048 11.2928 14.452 11.1767 14.1735C11.0606 13.8951 11.0005 13.5965 11 13.2948C11 12.6855 11.243 12.1023 11.6777 11.6721C12.1132 11.2411 12.7012 10.9995 13.3139 10.9998C13.9277 10.9998 14.5163 11.2419 14.951 11.6721C15.3848 12.1023 15.6287 12.6855 15.6287 13.2948Z" fill="#C1C2C5"/>
</svg>
