<svg width="48" height="48" viewBox="0 0 48 48" fill="none" xmlns="http://www.w3.org/2000/svg">
<rect width="48" height="48" rx="24" fill="#41424D" fill-opacity="0.3"/>
<path d="M24.0007 35.6667C30.444 35.6667 35.6673 30.4433 35.6673 24C35.6673 17.5567 30.444 12.3333 24.0007 12.3333C17.5573 12.3333 12.334 17.5567 12.334 24C12.334 30.4433 17.5573 35.6667 24.0007 35.6667Z" stroke="#2574F3" stroke-width="1.5"/>
<path d="M24 17V31M27.5 21.0833C27.5 19.4733 25.9332 18.1667 24 18.1667C22.0668 18.1667 20.5 19.4733 20.5 21.0833C20.5 22.6933 22.0668 24 24 24C25.9332 24 27.5 25.3067 27.5 26.9167C27.5 28.5267 25.9332 29.8333 24 29.8333C22.0668 29.8333 20.5 28.5267 20.5 26.9167" stroke="#2574F3" stroke-width="1.5" stroke-linecap="round"/>
</svg>
