<svg width="249" height="46" viewBox="0 0 249 46" fill="none" xmlns="http://www.w3.org/2000/svg">
<path d="M14.9492 41.2372V29.5061C14.9499 27.1184 15.8905 24.8287 17.5643 23.1407C19.238 21.4527 21.5078 20.5045 23.8743 20.5048V32.2325C23.8741 34.6206 22.9337 36.9109 21.26 38.5995C19.5862 40.2882 17.3162 41.237 14.9492 41.2372Z" fill="white"/>
<path d="M11.2032 15.0842H26.8985C33.2793 15.0842 36.698 8.22736 34.1201 2C34.7457 4.57459 33.6157 10.265 25.8508 10.265H12.9723C4.74587 10.265 1.84257 15.7051 2.00653 20.5625C2.13854 24.4782 4.70214 28.0148 4.70214 28.0148C1.81315 20.1383 6.96138 15.0842 11.2032 15.0842Z" fill="url(#paint0_linear_6770_2277)"/>
<path d="M26.8983 15.0842H11.203C6.96117 15.0842 1.81293 20.1383 4.70193 28.0148C4.07637 25.4402 5.20641 19.7498 12.9721 19.7498H25.8506C34.077 19.7498 36.9803 14.3097 36.8164 9.45231C36.6844 5.53656 34.1199 2 34.1199 2C36.6978 8.22736 33.2791 15.0842 26.8983 15.0842Z" fill="url(#paint1_linear_6770_2277)"/>
<path d="M51.1347 9.95703V13.0652H47.4226V24.0032H43.5549V13.0652H39.8789V9.95703H51.1347Z" fill="white"/>
<path d="M52.8825 11.2218C52.6818 11.0448 52.5221 10.8255 52.4146 10.5794C52.3071 10.3333 52.2544 10.0664 52.2603 9.79754C52.2537 9.52408 52.3058 9.25242 52.4133 9.00127C52.5207 8.75011 52.6808 8.52543 52.8825 8.34271C53.2968 7.95758 53.8464 7.76501 54.5313 7.76501C55.204 7.76501 55.7469 7.95758 56.16 8.34271C56.3617 8.52543 56.5218 8.75011 56.6292 9.00127C56.7367 9.25242 56.7888 9.52408 56.7822 9.79754C56.7881 10.0664 56.7354 10.3333 56.6279 10.5794C56.5204 10.8255 56.3607 11.0448 56.16 11.2218C55.7452 11.6002 55.2023 11.7896 54.5313 11.7902C53.8464 11.7902 53.2968 11.6007 52.8825 11.2218ZM56.4467 12.826V24.0032H52.579V12.826H56.4467Z" fill="white"/>
<path d="M58.6495 15.3759C59.0638 14.5124 59.633 13.8482 60.3572 13.3833C61.0762 12.9203 61.9131 12.678 62.7661 12.686C63.4284 12.6746 64.0833 12.8288 64.6722 13.1347C65.212 13.4154 65.6659 13.8388 65.9855 14.3597V9.2597H69.8776V24.0031H65.9855V22.4491C65.6776 22.9715 65.2335 23.3987 64.7016 23.6842C64.1489 23.9896 63.4973 24.1423 62.7468 24.1423C61.8965 24.1515 61.0623 23.909 60.3471 23.445C59.6302 22.9801 59.0643 22.3128 58.6495 21.443C58.2347 20.5732 58.0273 19.5603 58.0273 18.4044C58.0273 17.249 58.2347 16.2395 58.6495 15.3759ZM65.4214 16.7112C65.2354 16.5166 65.0126 16.3617 64.7662 16.2556C64.5198 16.1495 64.2549 16.0944 63.987 16.0934C63.7191 16.0925 63.4538 16.1458 63.2066 16.2501C62.9595 16.3545 62.7357 16.5078 62.5483 16.701C62.1655 17.1065 61.9741 17.6743 61.9741 18.4044C61.9741 19.1209 62.1649 19.6887 62.5467 20.1078C62.7278 20.3113 62.9505 20.4728 63.1994 20.5811C63.4484 20.6895 63.7176 20.7422 63.9886 20.7355C64.2566 20.7401 64.5225 20.6875 64.7688 20.581C65.0152 20.4746 65.2364 20.3168 65.418 20.1179C65.8065 19.7068 66.0007 19.1356 66.0007 18.4044C66.0035 17.6867 65.8104 17.1223 65.4214 16.7112Z" fill="white"/>
<path d="M72.0773 15.3759C72.4921 14.5124 73.0582 13.8481 73.7757 13.3833C74.4906 12.9195 75.3246 12.6771 76.1745 12.686C76.938 12.686 77.5963 12.8389 78.1495 13.1449C78.6816 13.4301 79.1258 13.8574 79.4335 14.38V12.8259H83.3011V24.0031H79.4335V22.449C79.1233 22.9733 78.6755 23.4008 78.1395 23.6842C77.5789 23.9896 76.9239 24.1422 76.1745 24.1422C75.3245 24.1516 74.4905 23.9091 73.7757 23.4449C73.0576 22.9801 72.4915 22.3127 72.0773 21.443C71.663 20.5732 71.4556 19.5603 71.4551 18.4043C71.4551 17.249 71.6625 16.2395 72.0773 15.3759ZM78.8508 16.7111C78.6648 16.5166 78.442 16.3617 78.1956 16.2556C77.9493 16.1495 77.6843 16.0944 77.4164 16.0934C77.1485 16.0925 76.8832 16.1457 76.6361 16.2501C76.3889 16.3545 76.1651 16.5078 75.9778 16.701C75.5955 17.1065 75.4043 17.6742 75.4043 18.4043C75.4043 19.1209 75.5955 19.6887 75.9778 20.1077C76.1588 20.3112 76.3813 20.4726 76.6301 20.581C76.8789 20.6894 77.148 20.7421 77.4189 20.7355C77.6868 20.74 77.9527 20.6873 78.199 20.5809C78.4453 20.4744 78.6666 20.3167 78.8483 20.1179C79.2356 19.7068 79.4298 19.1356 79.4309 18.4043C79.4326 17.6867 79.2392 17.1223 78.8508 16.7111Z" fill="white"/>
<path d="M89.3833 9.2597V24.0031H85.5156V9.2597H89.3833Z" fill="white"/>
<path d="M43.6644 34.0394C44.0685 33.2597 44.6845 32.6123 45.4402 32.1731C46.1975 31.7309 47.0649 31.5098 48.0425 31.5098C49.307 31.5098 50.3496 31.8194 51.1702 32.4387C51.9909 33.0579 52.5326 33.9172 52.7955 35.0166H50.9542C50.7972 34.4117 50.4347 33.8815 49.9301 33.5185C49.4256 33.1521 48.7964 32.9688 48.0425 32.9688C47.0654 32.9688 46.2762 33.3082 45.6748 33.9868C45.0733 34.6654 44.7726 35.6226 44.7726 36.8583C44.7726 38.1098 45.0733 39.0766 45.6748 39.7586C46.2762 40.4407 47.0654 40.7808 48.0425 40.7791C48.7936 40.7791 49.4197 40.6021 49.9208 40.2481C50.4219 39.8941 50.7664 39.3885 50.9542 38.7313H52.7955C52.5499 39.7471 51.9665 40.6472 51.1425 41.2813C50.3151 41.9192 49.2818 42.2382 48.0425 42.2382C47.0654 42.2382 46.198 42.0171 45.4402 41.5748C44.6824 41.1337 44.0661 40.4825 43.6644 39.6984C43.2378 38.8902 43.0248 37.9424 43.0254 36.8549C43.0254 35.7804 43.2384 34.8419 43.6644 34.0394Z" fill="white"/>
<path d="M62.2824 31.9924C62.914 32.3322 63.4283 32.8576 63.7572 33.499C64.1148 34.1675 64.2934 34.9824 64.2928 35.9438V42.066H62.6019V36.1907C62.6019 35.1546 62.3452 34.3629 61.8318 33.8154C61.3183 33.268 60.6177 32.9932 59.7298 32.9909C58.8284 32.9909 58.1115 33.2751 57.579 33.8434C57.0465 34.4118 56.7802 35.2394 56.7802 36.3264V42.0702H55.0684V28.0394H56.7777V33.158C57.1204 32.6227 57.6055 32.1955 58.1776 31.9254C58.803 31.6281 59.4875 31.479 60.1788 31.4894C60.9104 31.4788 61.6333 31.6517 62.2824 31.9924Z" fill="white"/>
<path d="M67.0933 34.0394C67.494 33.2637 68.1026 32.6171 68.8497 32.1731C69.6046 31.7283 70.4652 31.499 71.3393 31.5098C72.2406 31.5098 73.0234 31.7054 73.6877 32.0968C74.3519 32.4881 74.8474 32.9807 75.1742 33.5745V31.6794H76.9029V42.0668H75.1742V40.1336C74.8125 40.7634 74.2899 41.2838 73.6608 41.6401C72.9881 42.0388 72.2084 42.2368 71.3216 42.234C70.4482 42.2463 69.5889 42.0112 68.8413 41.5553C68.0947 41.0923 67.4899 40.4296 67.0941 39.6407C66.6681 38.8195 66.4551 37.8844 66.4551 36.8354C66.4545 35.7733 66.6672 34.8413 67.0933 34.0394ZM74.7025 34.8071C74.412 34.2504 73.9724 33.7872 73.4337 33.4702C72.8989 33.1675 72.2963 33.0078 71.6831 33.0062C71.0699 33.0045 70.4665 33.161 69.9301 33.4608C69.3936 33.7736 68.9563 34.2337 68.6689 34.7876C68.355 35.3695 68.1983 36.0521 68.1989 36.8354C68.1989 37.6311 68.3556 38.323 68.6689 38.9112C68.9557 39.4703 69.3928 39.9365 69.9301 40.2566C70.4604 40.5675 71.064 40.7281 71.6773 40.7214C72.2934 40.7273 72.8999 40.5668 73.4337 40.2566C73.974 39.9386 74.4139 39.4727 74.7025 38.9129C75.017 38.3241 75.1742 37.6379 75.1742 36.854C75.1742 36.0702 75.017 35.3879 74.7025 34.8071Z" fill="white"/>
<path d="M79.8497 29.6511C79.6856 29.4866 79.5738 29.2766 79.5285 29.0478C79.4831 28.819 79.5063 28.5817 79.595 28.3662C79.6837 28.1507 79.834 27.9668 80.0267 27.8377C80.2194 27.7086 80.4458 27.6403 80.677 27.6415C80.8261 27.639 80.9741 27.6678 81.1115 27.7263C81.2489 27.7847 81.3727 27.8714 81.475 27.9808C81.6862 28.2063 81.8038 28.5049 81.8038 28.8151C81.8038 29.1254 81.6862 29.4239 81.475 29.6494C81.3727 29.7589 81.2489 29.8456 81.1115 29.904C80.9741 29.9624 80.8261 29.9913 80.677 29.9888C80.5236 29.9923 80.3711 29.9642 80.2288 29.9061C80.0865 29.8481 79.9575 29.7613 79.8497 29.6511ZM81.5035 31.6794V42.0668H79.7934V31.6794H81.5035Z" fill="white"/>
<path d="M92.4762 32.6355C93.2531 33.4006 93.6416 34.5034 93.6416 35.9438V42.066H91.9507V36.1907C91.9507 35.1546 91.6937 34.3629 91.1797 33.8155C90.6657 33.268 89.965 32.9932 89.0777 32.9909C88.1752 32.9909 87.458 33.2751 86.9261 33.8434C86.3941 34.4118 86.1279 35.2395 86.1273 36.3264V42.0702H84.418V31.6794H86.1273V33.158C86.4665 32.6266 86.9445 32.2001 87.5087 31.9254C88.1082 31.6311 88.7675 31.4818 89.4342 31.4894C90.6859 31.4894 91.6999 31.8714 92.4762 32.6355Z" fill="white"/>
<defs>
<linearGradient id="paint0_linear_6770_2277" x1="11.1656" y1="6.68846" x2="26.7926" y2="22.1773" gradientUnits="userSpaceOnUse">
<stop stop-color="#38ACFF"/>
<stop offset="1" stop-color="#1E60EF"/>
</linearGradient>
<linearGradient id="paint1_linear_6770_2277" x1="3.86113" y1="15.0078" x2="36.8231" y2="15.0078" gradientUnits="userSpaceOnUse">
<stop stop-color="#99E4FF"/>
<stop offset="1" stop-color="#75D0FA"/>
</linearGradient>
</defs>
</svg>
