<svg width="15" height="16" viewBox="0 0 15 16" fill="none" xmlns="http://www.w3.org/2000/svg">
<path d="M15 8.00121C14.9997 12.0739 11.7276 15.5015 7.49865 15.5C3.254 15.4985 -0.00934863 12.0527 2.01216e-05 7.98338C0.00938888 3.9219 3.27062 0.498489 7.50137 0.500001C11.7457 0.501512 15.0006 3.94003 15 8.00121ZM5.83131 12.4314C5.86033 12.4052 5.89448 12.3767 5.92621 12.345C8.12726 10.1439 10.3277 7.94257 12.5312 5.74362C12.6182 5.65687 12.6116 5.60912 12.5288 5.52781C12.0803 5.0859 11.6369 4.63886 11.1918 4.19393C11.0373 4.03948 11.037 4.03948 10.8774 4.19907C9.23217 5.84458 7.58629 7.48918 5.94374 9.13771C5.84703 9.23474 5.79172 9.24078 5.6926 9.13983C5.07728 8.51566 4.4535 7.89995 3.83728 7.27699C3.74964 7.18843 3.69856 7.1848 3.60941 7.27548C3.15789 7.73552 2.70245 8.19194 2.24187 8.64291C2.14788 8.7351 2.14244 8.78618 2.23945 8.88139C2.76441 9.39645 3.2818 9.91875 3.80192 10.4386C4.43597 11.0725 5.06973 11.7066 5.70408 12.3402C5.73823 12.3749 5.76664 12.42 5.83131 12.4314Z" fill="white"/>
</svg>
