<svg width="40" height="40" viewBox="0 0 40 40" fill="none" xmlns="http://www.w3.org/2000/svg">
<rect width="40" height="40" rx="20" fill="#232531"/>
<g clip-path="url(#clip0_7355_3408)">
<path fill-rule="evenodd" clip-rule="evenodd" d="M27.777 12.43C28.0241 12.326 28.2946 12.2901 28.5603 12.3261C28.826 12.3621 29.0771 12.4686 29.2877 12.6347C29.4982 12.8007 29.6604 13.0201 29.7574 13.27C29.8543 13.52 29.8825 13.7914 29.839 14.056L27.571 27.813C27.351 29.14 25.895 29.901 24.678 29.24C23.66 28.687 22.148 27.835 20.788 26.946C20.108 26.501 18.025 25.076 18.281 24.062C18.501 23.195 22.001 19.937 24.001 18C24.786 17.239 24.428 16.8 23.501 17.5C21.199 19.238 17.503 21.881 16.281 22.625C15.203 23.281 14.641 23.393 13.969 23.281C12.743 23.077 11.606 22.761 10.678 22.376C9.42399 21.856 9.48499 20.132 10.677 19.63L27.777 12.43Z" fill="#C1C2C5"/>
</g>
<defs>
<clipPath id="clip0_7355_3408">
<rect width="24" height="24" fill="white" transform="translate(8 8)"/>
</clipPath>
</defs>
</svg>
