<svg width="25" height="14" viewBox="0 0 25 14" fill="none" xmlns="http://www.w3.org/2000/svg">
<path d="M10.4497 7.88442C9.2516 7.88442 8.05267 7.87402 6.85453 7.89082C6.5138 7.89562 6.10669 7.55969 6.02911 7.25176C5.92753 6.85185 6.09949 6.44714 6.42502 6.24878C6.58019 6.1544 6.73535 6.12081 6.91452 6.12081C9.2716 6.12401 11.6279 6.11601 13.985 6.13041C14.3529 6.13281 14.5808 5.96164 14.7464 5.6865C14.8976 5.43616 14.7968 5.01945 14.552 4.7707C14.0809 4.29161 13.6026 3.81971 13.1276 3.34462C12.8636 3.08147 12.6029 2.81513 12.3357 2.55599C12.175 2.40082 12.0558 2.21606 11.9566 2.02251C11.8686 1.85054 11.8534 1.65619 11.9886 1.49622C12.0638 1.40664 12.0406 1.28747 12.1358 1.20029C12.5589 0.813172 13.1523 0.813972 13.5643 1.22428C15.2455 2.90151 16.9251 4.58115 18.6072 6.25838C18.8015 6.45274 18.8871 6.70308 18.9895 6.94543C19.0271 7.03421 18.9535 7.10779 18.9335 7.18857C18.8511 7.5125 18.6327 7.73645 18.4064 7.962C17.2115 9.15374 16.0205 10.3495 14.8272 11.5428C14.4369 11.9331 14.029 12.3059 13.6554 12.7114C13.3235 13.0713 12.9196 13.1233 12.4765 13.0681C12.2981 13.0457 12.1886 12.8921 12.095 12.765C11.8278 12.4026 11.8366 12.1147 12.099 11.7452C12.183 11.6268 12.2797 11.5148 12.3821 11.4116C13.0908 10.6998 13.801 9.98876 14.5144 9.28172C14.7432 9.05536 14.848 8.79782 14.7872 8.47469C14.7312 8.17876 14.4041 7.88682 14.1057 7.88682C12.8868 7.88442 11.6679 7.88522 10.4497 7.88442Z" fill="#97989E"/>
</svg>
