<svg width="49" height="48" viewBox="0 0 49 48" fill="none" xmlns="http://www.w3.org/2000/svg">
<rect x="0.333984" width="48" height="48" rx="24" fill="#41424D" fill-opacity="0.3"/>
<path d="M33.959 17.875H16.459C16.2269 17.875 16.0044 17.7828 15.8403 17.6187C15.6762 17.4546 15.584 17.2321 15.584 17C15.584 16.7679 15.6762 16.5454 15.8403 16.3813C16.0044 16.2172 16.2269 16.125 16.459 16.125H31.334C31.566 16.125 31.7886 16.0328 31.9527 15.8687C32.1168 15.7046 32.209 15.4821 32.209 15.25C32.209 15.0179 32.1168 14.7954 31.9527 14.6313C31.7886 14.4672 31.566 14.375 31.334 14.375H16.459C15.7628 14.375 15.0951 14.6516 14.6028 15.1438C14.1105 15.6361 13.834 16.3038 13.834 17V31C13.834 31.6962 14.1105 32.3639 14.6028 32.8562C15.0951 33.3484 15.7628 33.625 16.459 33.625H33.959C34.4231 33.625 34.8682 33.4406 35.1964 33.1124C35.5246 32.7842 35.709 32.3391 35.709 31.875V19.625C35.709 19.1609 35.5246 18.7158 35.1964 18.3876C34.8682 18.0594 34.4231 17.875 33.959 17.875ZM33.959 31.875H16.459C16.2269 31.875 16.0044 31.7828 15.8403 31.6187C15.6762 31.4546 15.584 31.2321 15.584 31V19.4752C15.8649 19.5748 16.1609 19.6254 16.459 19.625H33.959V31.875ZM28.709 25.3125C28.709 25.0529 28.786 24.7992 28.9302 24.5833C29.0744 24.3675 29.2794 24.1992 29.5192 24.0999C29.759 24.0006 30.0229 23.9746 30.2775 24.0252C30.5321 24.0759 30.766 24.2009 30.9496 24.3844C31.1331 24.568 31.2581 24.8018 31.3088 25.0564C31.3594 25.311 31.3334 25.5749 31.2341 25.8148C31.1347 26.0546 30.9665 26.2596 30.7507 26.4038C30.5348 26.548 30.2811 26.625 30.0215 26.625C29.6734 26.625 29.3395 26.4867 29.0934 26.2406C28.8473 25.9944 28.709 25.6606 28.709 25.3125Z" fill="#2574F3"/>
</svg>
