<svg width="30" height="30" viewBox="0 0 30 30" fill="none" xmlns="http://www.w3.org/2000/svg">
<path d="M19.4236 25H10.5764C7.50059 25 5 22.4742 5 19.3673V10.6327C5 7.52581 7.50059 5 10.5764 5H19.4236C22.4994 5 25 7.52581 25 10.6327V19.3673C25 22.4742 22.4994 25 19.4236 25ZM10.5764 6.44058C8.28976 6.44058 6.42619 8.32293 6.42619 10.6327V19.3673C6.42619 21.6771 8.28976 23.5594 10.5764 23.5594H19.4236C21.7102 23.5594 23.5738 21.6771 23.5738 19.3673V10.6327C23.5738 8.32293 21.7102 6.44058 19.4236 6.44058H10.5764Z" fill="#2574F3"/>
<path d="M15.2734 21.0672H14.7266C14.256 21.0672 13.8757 20.6831 13.8757 20.2077V14.0084C13.8757 13.533 14.256 13.1489 14.7266 13.1489H15.2734C15.744 13.1489 16.1243 13.533 16.1243 14.0084V20.2125C16.1243 20.6831 15.744 21.0672 15.2734 21.0672Z" fill="#2574F3"/>
<path d="M15.0024 11.0648C15.5852 11.0648 16.0578 10.5875 16.0578 9.9988C16.0578 9.41005 15.5852 8.93277 15.0024 8.93277C14.4195 8.93277 13.947 9.41005 13.947 9.9988C13.947 10.5875 14.4195 11.0648 15.0024 11.0648Z" fill="#2574F3"/>
</svg>
